<?xml version="1.0" encoding="UTF-8" standalone="no"?>
<!-- Created with Inkscape (http://www.inkscape.org/) -->

<svg
   xmlns:dc="http://purl.org/dc/elements/1.1/"
   xmlns:cc="http://creativecommons.org/ns#"
   xmlns:rdf="http://www.w3.org/1999/02/22-rdf-syntax-ns#"
   xmlns:svg="http://www.w3.org/2000/svg"
   xmlns="http://www.w3.org/2000/svg"
   xmlns:xlink="http://www.w3.org/1999/xlink"
   xmlns:sodipodi="http://sodipodi.sourceforge.net/DTD/sodipodi-0.dtd"
   xmlns:inkscape="http://www.inkscape.org/namespaces/inkscape"
   width="512"
   height="256"
   id="svg2"
   version="1.1"
   inkscape:version="0.48.4 r9939"
   sodipodi:docname="New document 1">
  <defs
     id="defs4">
    <linearGradient
       id="linearGradient5389">
      <stop
         id="stop5403"
         offset="0"
         style="stop-color:#ff00ff;stop-opacity:1;" />
      <stop
         style="stop-color:#7d00ff;stop-opacity:1;"
         offset="0.17"
         id="stop5415" />
      <stop
         style="stop-color:#0000ff;stop-opacity:1;"
         offset="0.34"
         id="stop5413" />
      <stop
         style="stop-color:#00ff00;stop-opacity:1;"
         offset="0.50999999"
         id="stop5407" />
      <stop
         id="stop5409"
         offset="0.68000001"
         style="stop-color:#fff500;stop-opacity:1;" />
      <stop
         style="stop-color:#ff7d00;stop-opacity:1;"
         offset="0.85000002"
         id="stop5411" />
      <stop
         id="stop5401"
         offset="1"
         style="stop-color:#ff0000;stop-opacity:1;" />
    </linearGradient>
    <inkscape:perspective
       sodipodi:type="inkscape:persp3d"
       inkscape:vp_x="0 : 128 : 1"
       inkscape:vp_y="0 : 1000 : 0"
       inkscape:vp_z="512 : 128 : 1"
       inkscape:persp3d-origin="256 : 85.333333 : 1"
       id="perspective3779" />
    <linearGradient
       inkscape:collect="always"
       xlink:href="#linearGradient5389"
       id="linearGradient5459"
       x1="0"
       y1="129.375"
       x2="512"
       y2="129.375"
       gradientUnits="userSpaceOnUse"
       gradientTransform="translate(52.4,796.36218)" />
    <filter
       id="filter6173"
       inkscape:label="Drop Shadow"
       style="color-interpolation-filters:sRGB;">
      <feFlood
         id="feFlood6175"
         flood-opacity="0.6"
         flood-color="rgb(0,0,0)"
         result="flood" />
      <feComposite
         id="feComposite6177"
         in2="SourceGraphic"
         in="flood"
         operator="in"
         result="composite1" />
      <feGaussianBlur
         id="feGaussianBlur6179"
         stdDeviation="7"
         result="blur"
         in="composite" />
      <feOffset
         id="feOffset6181"
         dx="-15"
         dy="-10"
         result="offset" />
      <feComposite
         id="feComposite6183"
         in2="offset"
         in="SourceGraphic"
         operator="over"
         result="composite2" />
    </filter>
  </defs>
  <sodipodi:namedview
     id="base"
     pagecolor="#ffffff"
     bordercolor="#666666"
     borderopacity="1.0"
     inkscape:pageopacity="0.0"
     inkscape:pageshadow="2"
     inkscape:zoom="1"
     inkscape:cx="399.04449"
     inkscape:cy="164.0189"
     inkscape:document-units="px"
     inkscape:current-layer="layer1"
     showgrid="false"
     inkscape:window-width="1920"
     inkscape:window-height="998"
     inkscape:window-x="0"
     inkscape:window-y="30"
     inkscape:window-maximized="1" />
  <metadata
     id="metadata7">
    <rdf:RDF>
      <cc:Work
         rdf:about="">
        <dc:format>image/svg+xml</dc:format>
        <dc:type
           rdf:resource="http://purl.org/dc/dcmitype/StillImage" />
        <dc:title></dc:title>
      </cc:Work>
    </rdf:RDF>
  </metadata>
  <g
     inkscape:label="Layer 1"
     inkscape:groupmode="layer"
     id="layer1"
     transform="translate(0,-796.36218)">
    <path
       style="fill:url(#linearGradient5459);fill-opacity:1;fill-rule:nonzero;stroke:#000000;stroke-width:2;stroke-miterlimit:4;stroke-opacity:1;stroke-dasharray:none;stroke-dashoffset:0;filter:url(#filter6173)"
       d="m 337.43125,809.11218 -4.09375,4.09375 0,2.0625 -12.15625,1.8125 3.625,7.53125 8.53125,-1.28125 0,87.25 -4.78125,0 c -13.0869,0.40214 -27.74516,-0.11963 -29.6875,-4.78125 -3.53154,-8.47568 -7.0625,-10.59375 -7.0625,-10.59375 l -18.34375,1.40625 -2.84375,15.5625 -19.75,0 c 0,0 -16.26301,-1.42011 -9.90625,15.53125 4.62328,12.32873 -2.6884,30.58872 -7.03125,39.65625 l -15.28125,0 -1.6875,-5.0625 1.71875,-5.75 5.34375,0 0,-6.0625 -18.125,0 0,4.75 -1.65625,0 1.65625,0.15625 0,1.15625 5.53125,0 1.28125,5.75 -1.59375,5.0625 -11.75,0 0,-4.78125 -24.1875,0 0,4.78125 -9.0625,0 -2.15625,-7.1875 2.84375,-9.875 6.34375,-1.40625 -0.6875,-7.78125 -6.375,-0.6875 -2.125,-4.96875 -18.34375,0.71875 -1.40625,4.9375 -28.96875,0.71875 -0.71875,-3.53125 -7.0625,1.40625 0,14.84375 8.5,0.6875 -0.71875,-4.9375 28.96875,-0.71875 1.40625,8.5 2.8125,0.6875 1.40625,6.375 -0.9375,2.21875 -34.53125,0 -3.375,-5.75 -16.21875,0.6875 -2.03125,5.0625 -40.34375,0 c 1.271364,0.68096 0.917404,0.46313 2.3125,1.21875 5.860225,3.17406 12.757215,6.97649 20.28125,11.28125 7.524035,4.30476 15.651239,9.1162 24,14.25 8.35726,5.13907 16.91458,10.61822 25.25,16.28122 4.16771,2.8315 8.27722,5.6883 12.28125,8.5938 4.00403,2.9055 7.89012,5.8711 11.625,8.8125 3.73488,2.9413 7.32725,5.9044 10.6875,8.8437 2.19777,1.9224 4.1248,3.8108 6.125,5.7188 l 356.34375,0 43.09375,-75.00002 -1.0625,0 0.40625,-0.0937 -3.53125,-20.5 -55.78125,0 -2.03125,7.90625 -25.625,0 -6.5625,-38.09375 0,-84.6875 10.5625,-6.09375 0,-15.59375 -33.46875,19.34375 6.75,11.6875 5.46875,-3.15625 0,71.96875 -10.90625,0 -21.1875,0 -9.1875,-33.21875 -16.9375,-12.6875 -36.75,1.40625 -8.46875,15.53125 7.78125,50.84375 -4.15625,15.5 -9.53125,0 -1.125,-36.84375 -11.53125,0 0,-87.875 7.5,-1.125 -3.625,-7.5 -3.875,0.5625 0,-5.53125 -0.0937,0 z"
       id="path3842"
       inkscape:connector-curvature="0"
       transform="matrix(0.91768632,0,0,0.91768632,-24.765001,82.169541)" />
    <path
       sodipodi:type="arc"
       style="fill:#4169e1;fill-opacity:1;stroke:#000000;stroke-width:0;stroke-miterlimit:4;stroke-opacity:1;stroke-dasharray:none"
       id="path3861"
       sodipodi:cx="570.69769"
       sodipodi:cy="181.11627"
       sodipodi:rx="0.46511629"
       sodipodi:ry="2.3255813"
       d="m 571.16281,181.11627 a 0.46511629,2.3255813 0 1 1 -0.93023,0 0.46511629,2.3255813 0 1 1 0.93023,0 z"
       transform="translate(0,796.36218)" />
  </g>
</svg>
